<svg xmlns="http://www.w3.org/2000/svg" viewBox="0 0 320 280" role="img" aria-labelledby="title">
  <title>Clean Move icon</title>
  <defs>
    <linearGradient id="silver" x1="84" y1="26" x2="226" y2="248" gradientUnits="userSpaceOnUse">
      <stop offset="0" stop-color="#ffffff"/>
      <stop offset="0.38" stop-color="#eef0f4"/>
      <stop offset="0.72" stop-color="#9ca4b6"/>
      <stop offset="1" stop-color="#ffffff"/>
    </linearGradient>
    <linearGradient id="silver-soft" x1="270" y1="156" x2="315" y2="252" gradientUnits="userSpaceOnUse">
      <stop offset="0" stop-color="#ffffff"/>
      <stop offset="0.5" stop-color="#d7d9df"/>
      <stop offset="1" stop-color="#ffffff"/>
    </linearGradient>
    <linearGradient id="blue" x1="306" y1="92" x2="122" y2="254" gradientUnits="userSpaceOnUse">
      <stop offset="0" stop-color="#74c6ff"/>
      <stop offset="0.48" stop-color="#4e78d0"/>
      <stop offset="1" stop-color="#2f3f9c"/>
    </linearGradient>
    <linearGradient id="spark" x1="271" y1="22" x2="271" y2="74" gradientUnits="userSpaceOnUse">
      <stop offset="0" stop-color="#7fc7ff"/>
      <stop offset="1" stop-color="#3857b6"/>
    </linearGradient>
    <filter id="icon-shadow" x="-20%" y="-20%" width="140%" height="150%" color-interpolation-filters="sRGB">
      <feDropShadow dx="0" dy="6" stdDeviation="5" flood-color="#02040a" flood-opacity="0.35"/>
    </filter>
  </defs>

  <g filter="url(#icon-shadow)">
    <path
      d="M244 23H136C76 23 37 67 37 125C37 186 83 225 139 225C155 225 170 221 183 213"
      fill="none"
      stroke="url(#silver)"
      stroke-width="41"
      stroke-linecap="round"
      stroke-linejoin="round"
    />
    <path
      d="M239 21H139C82 21 45 61 43 116"
      fill="none"
      stroke="#ffffff"
      stroke-width="8"
      stroke-linecap="round"
      opacity="0.45"
    />
    <path
      d="M302 161L286 177V238"
      fill="none"
      stroke="url(#silver-soft)"
      stroke-width="38"
      stroke-linecap="round"
      stroke-linejoin="round"
    />
    <path
      d="M119 253C139 257 164 254 181 238L304 117C312 109 314 99 309 92C304 85 296 85 289 92L151 228C141 239 130 248 119 253Z"
      fill="url(#blue)"
    />
    <path
      d="M288 94L151 229"
      fill="none"
      stroke="#94dcff"
      stroke-width="5"
      stroke-linecap="round"
      opacity="0.38"
    />
    <path
      d="M271 22C275 38 283 45 299 48C283 51 275 58 271 74C267 58 259 51 243 48C259 45 267 38 271 22Z"
      fill="url(#spark)"
    />
  </g>
</svg>
